<?xml version="1.0" standalone="no"?>
<!DOCTYPE svg PUBLIC "-//W3C//DTD SVG 20010904//EN"
 "http://www.w3.org/TR/2001/REC-SVG-20010904/DTD/svg10.dtd">
<svg version="1.0" xmlns="http://www.w3.org/2000/svg"
 width="512.000000pt" height="512.000000pt" viewBox="0 0 512.000000 512.000000"
 preserveAspectRatio="xMidYMid meet">
<metadata>
Created by potrace 1.11, written by Peter Selinger 2001-2013
</metadata>
<g transform="translate(0.000000,512.000000) scale(0.100000,-0.100000)"
fill="#000000" stroke="none">
<path d="M1433 4462 l-1113 -657 0 -1245 0 -1245 1112 -654 c611 -360 1119
-655 1128 -655 9 -1 517 294 1128 654 l1112 654 0 1246 0 1245 -1111 655
c-611 360 -1119 656 -1128 657 -9 1 -517 -294 -1128 -655z m2318 -997 c113
-29 206 -82 289 -165 108 -107 169 -239 170 -362 l0 -38 -45 0 -45 0 0 38 c0
100 -58 222 -144 307 -108 105 -242 155 -422 155 -178 0 -327 -51 -422 -147
-71 -70 -95 -126 -100 -234 -5 -109 18 -169 90 -234 85 -77 160 -104 483 -176
335 -74 429 -112 515 -205 62 -68 82 -122 88 -237 6 -121 -13 -201 -68 -286
-172 -266 -694 -333 -1004 -131 -152 99 -240 249 -261 443 l-7 67 46 0 c43 0
46 -1 46 -27 1 -56 31 -170 61 -230 65 -128 213 -234 374 -268 103 -22 275
-19 369 5 154 39 264 118 318 228 31 62 33 73 33 172 0 121 -12 154 -78 220
-73 72 -150 98 -507 175 -150 32 -295 77 -370 115 -80 40 -154 111 -187 178
-26 52 -28 66 -28 172 0 109 2 119 32 183 76 159 231 262 448 297 81 12 248 5
326 -15z m-1411 -605 c0 -639 -2 -672 -56 -804 -61 -150 -180 -280 -319 -346
-113 -55 -197 -74 -335 -74 -125 0 -200 15 -302 61 -224 100 -397 343 -415
580 l-6 73 230 0 230 0 6 -49 c10 -86 63 -168 130 -203 33 -18 59 -23 122 -23
91 0 143 21 189 76 60 71 60 71 64 477 l3 372 -250 0 -251 0 0 225 0 225 480
0 480 0 0 -590z"/>
</g>
</svg>
